<svg xmlns="http://www.w3.org/2000/svg" style="display:none">
  <!-- Glowwww custom icon set — stroke, 24 viewBox -->
  <symbol id="gi-bolt" viewBox="0 0 24 24" fill="none" stroke="currentColor" stroke-width="1.75" stroke-linecap="round" stroke-linejoin="round">
    <path d="M13 2 4 14h7l-1 8 9-12h-7l1-8z"/>
  </symbol>
  <symbol id="gi-chat" viewBox="0 0 24 24" fill="none" stroke="currentColor" stroke-width="1.75" stroke-linecap="round" stroke-linejoin="round">
    <path d="M7.5 19.5 4 21l1-3.5A8.5 8.5 0 1 1 12 20.5a8.4 8.4 0 0 1-4.5-1z"/>
    <path d="M8.5 11h7M8.5 14h4.5"/>
  </symbol>
  <symbol id="gi-mic" viewBox="0 0 24 24" fill="none" stroke="currentColor" stroke-width="1.75" stroke-linecap="round" stroke-linejoin="round">
    <rect x="9" y="2.5" width="6" height="11" rx="3"/>
    <path d="M6 11a6 6 0 0 0 12 0M12 17v4M9 21h6"/>
  </symbol>
  <symbol id="gi-tools" viewBox="0 0 24 24" fill="none" stroke="currentColor" stroke-width="1.75" stroke-linecap="round" stroke-linejoin="round">
    <path d="M14.5 4.5a4 4 0 0 0 5 5L12 17l-5 1 1-5 7.5-8.5z"/>
    <path d="m5 19 4-1"/>
    <path d="M3.5 14.5 5 16"/>
  </symbol>
  <symbol id="gi-grid" viewBox="0 0 24 24" fill="none" stroke="currentColor" stroke-width="1.75" stroke-linecap="round" stroke-linejoin="round">
    <rect x="3.5" y="3.5" width="7" height="7" rx="1.5"/>
    <rect x="13.5" y="3.5" width="7" height="7" rx="1.5"/>
    <rect x="3.5" y="13.5" width="7" height="7" rx="1.5"/>
    <rect x="13.5" y="13.5" width="7" height="7" rx="1.5"/>
  </symbol>
  <symbol id="gi-at" viewBox="0 0 24 24" fill="none" stroke="currentColor" stroke-width="1.75" stroke-linecap="round" stroke-linejoin="round">
    <circle cx="12" cy="12" r="3.25"/>
    <path d="M16.5 12v1.2a2.3 2.3 0 0 0 4.4-.7A8.5 8.5 0 1 0 12 20.5"/>
  </symbol>
  <symbol id="gi-agent" viewBox="0 0 24 24" fill="none" stroke="currentColor" stroke-width="1.75" stroke-linecap="round" stroke-linejoin="round">
    <rect x="5" y="8" width="14" height="11" rx="3"/>
    <path d="M9 8V6.5A3 3 0 0 1 12 3.5 3 3 0 0 1 15 6.5V8"/>
    <circle cx="9.5" cy="13" r="1"/>
    <circle cx="14.5" cy="13" r="1"/>
    <path d="M10 16.5h4M12 3.5v-1"/>
  </symbol>
  <symbol id="gi-studio" viewBox="0 0 24 24" fill="none" stroke="currentColor" stroke-width="1.75" stroke-linecap="round" stroke-linejoin="round">
    <circle cx="12" cy="12" r="3"/>
    <path d="M12 3.5v2.5M12 18v2.5M3.5 12h2.5M18 12h2.5M6.2 6.2l1.8 1.8M16 16l1.8 1.8M17.8 6.2 16 8M8 16l-1.8 1.8"/>
  </symbol>
  <symbol id="gi-play" viewBox="0 0 24 24" fill="none" stroke="currentColor" stroke-width="1.75" stroke-linecap="round" stroke-linejoin="round">
    <rect x="3.5" y="4.5" width="17" height="15" rx="3"/>
    <path d="m10.5 9 5 3-5 3V9z" fill="currentColor" stroke="none"/>
  </symbol>
  <symbol id="gi-scissors" viewBox="0 0 24 24" fill="none" stroke="currentColor" stroke-width="1.75" stroke-linecap="round" stroke-linejoin="round">
    <circle cx="7" cy="7" r="2.5"/>
    <circle cx="7" cy="17" r="2.5"/>
    <path d="M9.2 8.8 20 18M9.2 15.2 20 6"/>
  </symbol>
  <symbol id="gi-spark" viewBox="0 0 24 24" fill="none" stroke="currentColor" stroke-width="1.75" stroke-linecap="round" stroke-linejoin="round">
    <path d="M12 3.5 13.6 9l5.4.4-4.2 3.4 1.4 5.2L12 15.2 7.8 18l1.4-5.2L5 9.4 10.4 9 12 3.5z"/>
  </symbol>
  <symbol id="gi-lock" viewBox="0 0 24 24" fill="none" stroke="currentColor" stroke-width="1.75" stroke-linecap="round" stroke-linejoin="round">
    <rect x="5" y="10.5" width="14" height="10" rx="2.5"/>
    <path d="M8.5 10.5V8a3.5 3.5 0 0 1 7 0v2.5"/>
    <circle cx="12" cy="15.5" r="1.1" fill="currentColor" stroke="none"/>
  </symbol>
  <symbol id="gi-community" viewBox="0 0 24 24" fill="none" stroke="currentColor" stroke-width="1.75" stroke-linecap="round" stroke-linejoin="round">
    <circle cx="9" cy="9" r="2.5"/>
    <circle cx="16.5" cy="10" r="2"/>
    <path d="M3.5 18.5c.6-2.6 2.7-4 5.5-4s4.9 1.4 5.5 4"/>
    <path d="M14 18.5c.4-1.8 1.7-2.8 3.5-2.8 1.4 0 2.5.6 3.1 1.8"/>
  </symbol>
  <symbol id="gi-shield" viewBox="0 0 24 24" fill="none" stroke="currentColor" stroke-width="1.75" stroke-linecap="round" stroke-linejoin="round">
    <path d="M12 3.5 19 6.5v5.2c0 4.4-2.9 7.4-7 8.8-4.1-1.4-7-4.4-7-8.8V6.5L12 3.5z"/>
    <path d="m9 12 2 2 4-4"/>
  </symbol>
  <symbol id="gi-pen" viewBox="0 0 24 24" fill="none" stroke="currentColor" stroke-width="1.75" stroke-linecap="round" stroke-linejoin="round">
    <path d="M13.5 5.5 18.5 10.5"/>
    <path d="M5 19.5 6.2 15.2 16.8 4.6a1.8 1.8 0 0 1 2.6 2.6L8.8 17.8 5 19.5z"/>
  </symbol>
  <symbol id="gi-chart" viewBox="0 0 24 24" fill="none" stroke="currentColor" stroke-width="1.75" stroke-linecap="round" stroke-linejoin="round">
    <path d="M4 19.5h16"/>
    <path d="M7 16.5v-4M12 16.5v-8M17 16.5v-6"/>
  </symbol>
  <symbol id="gi-star" viewBox="0 0 24 24" fill="none" stroke="currentColor" stroke-width="1.75" stroke-linecap="round" stroke-linejoin="round">
    <path d="m12 3.5 2.1 5.3 5.7.5-4.3 3.6 1.4 5.5L12 15.4 7.1 18.4l1.4-5.5-4.3-3.6 5.7-.5L12 3.5z"/>
  </symbol>
  <symbol id="gi-download" viewBox="0 0 24 24" fill="none" stroke="currentColor" stroke-width="1.75" stroke-linecap="round" stroke-linejoin="round">
    <path d="M12 4v10"/>
    <path d="m8 11 4 4 4-4"/>
    <path d="M5 19h14"/>
  </symbol>
  <symbol id="gi-moon" viewBox="0 0 24 24" fill="none" stroke="currentColor" stroke-width="1.75" stroke-linecap="round" stroke-linejoin="round">
    <path d="M18.5 14.2A7.5 7.5 0 0 1 9.8 5.5 7.5 7.5 0 1 0 18.5 14.2z"/>
  </symbol>
  <symbol id="gi-clock" viewBox="0 0 24 24" fill="none" stroke="currentColor" stroke-width="1.75" stroke-linecap="round" stroke-linejoin="round">
    <circle cx="12" cy="12" r="8"/>
    <path d="M12 8v4.5l3 2"/>
  </symbol>
  <symbol id="gi-video" viewBox="0 0 24 24" fill="none" stroke="currentColor" stroke-width="1.75" stroke-linecap="round" stroke-linejoin="round">
    <rect x="3" y="6.5" width="13" height="11" rx="2.5"/>
    <path d="m16 10.5 4.5-2.5v8L16 13.5"/>
  </symbol>
  <symbol id="gi-card" viewBox="0 0 24 24" fill="none" stroke="currentColor" stroke-width="1.75" stroke-linecap="round" stroke-linejoin="round">
    <rect x="3" y="6" width="18" height="12" rx="2.5"/>
    <path d="M3 10.5h18M7 14.5h4"/>
  </symbol>
</svg>
